{
  "accessors": [
    {
      "bufferView": 2,
      "componentType": 5126,
      "count": 35106,
      "max": [
        0.7412621378898621,
        0.43608343601226807,
        0.8302507400512695
      ],
      "min": [
        -0.7734023332595825,
        -0.43198519945144653,
        -0.8332313895225525
      ],
      "type": "VEC3"
    },
    {
      "bufferView": 2,
      "byteOffset": 421272,
      "componentType": 5126,
      "count": 35106,
      "max": [
        0.9999493956565857,
        0.9999735951423645,
        1.0
      ],
      "min": [
        -0.9999997019767761,
        -0.9998987913131714,
        -0.9999839663505554
      ],
      "type": "VEC3"
    },
    {
      "bufferView": 1,
      "componentType": 5126,
      "count": 35106,
      "max": [
        0.9967661499977112,
        0.9967663288116455
      ],
      "min": [
        0.003233832074329257,
        0.011518597602844238
      ],
      "type": "VEC2"
    },
    {
      "bufferView": 0,
      "componentType": 5125,
      "count": 149991,
      "type": "SCALAR"
    },
    {
      "bufferView": 2,
      "byteOffset": 842544,
      "componentType": 5126,
      "count": 493,
      "max": [
        15.435822486877441,
        15.435822486877441,
        11.691919326782227
      ],
      "min": [
        -15.435822486877441,
        -15.435822486877441,
        -15.435822486877441
      ],
      "type": "VEC3"
    },
    {
      "bufferView": 2,
      "byteOffset": 848460,
      "componentType": 5126,
      "count": 493,
      "max": [
        1.0,
        1.0,
        0.9997685551643372
      ],
      "min": [
        -1.0,
        -1.0,
        -1.0
      ],
      "type": "VEC3"
    },
    {
      "bufferView": 1,
      "byteOffset": 280848,
      "componentType": 5126,
      "count": 493,
      "max": [
        1.000000238418579,
        0.7753024101257324
      ],
      "min": [
        0.0,
        -1.1920928955078125e-07
      ],
      "type": "VEC2"
    },
    {
      "bufferView": 0,
      "byteOffset": 599964,
      "componentType": 5125,
      "count": 2490,
      "type": "SCALAR"
    }
  ],
  "asset": {
    "extras": {
      "author": "vicente betoret ferrero (https://sketchfab.com/deathcow)",
      "license": "CC-BY-4.0 (http://creativecommons.org/licenses/by/4.0/)",
      "source": "https://sketchfab.com/3d-models/shiba-inu-astronaut-454d8419d60b47c897a99cf508ce0538",
      "title": "shiba inu astronaut"
    },
    "generator": "Sketchfab-15.53.0",
    "version": "2.0"
  },
  "bufferViews": [
    {
      "buffer": 0,
      "byteLength": 609924,
      "name": "floatBufferViews",
      "target": 34963
    },
    {
      "buffer": 0,
      "byteLength": 284792,
      "byteOffset": 609924,
      "byteStride": 8,
      "name": "floatBufferViews",
      "target": 34962
    },
    {
      "buffer": 0,
      "byteLength": 854376,
      "byteOffset": 894716,
      "byteStride": 12,
      "name": "floatBufferViews",
      "target": 34962
    }
  ],
  "buffers": [
    {
      "byteLength": 1749092,
      "uri": "scene.bin"
    }
  ],
  "extensionsUsed": [
    "KHR_materials_specular"
  ],
  "images": [
    {
      "uri": "textures/Material_25_baseColor.jpeg"
    }
  ],
  "materials": [
    {
      "doubleSided": true,
      "extensions": {
        "KHR_materials_specular": {
          "specularColorFactor": [
            1.0,
            1.0,
            1.0
          ],
          "specularFactor": 1.0
        }
      },
      "name": "Material_25",
      "pbrMetallicRoughness": {
        "baseColorTexture": {
          "index": 0
        },
        "metallicFactor": 0.0
      }
    },
    {
      "alphaMode": "BLEND",
      "doubleSided": true,
      "extensions": {
        "KHR_materials_specular": {
          "specularColorFactor": [
            1.0,
            1.0,
            1.0
          ],
          "specularFactor": 1.0
        }
      },
      "name": "01_-_Default",
      "pbrMetallicRoughness": {
        "baseColorFactor": [
          0.0274426214017744,
          0.0274426214017744,
          0.0274426214017744,
          0.388347163306081
        ],
        "roughnessFactor": 0.0
      }
    }
  ],
  "meshes": [
    {
      "name": "high_poly_Material #25_0",
      "primitives": [
        {
          "attributes": {
            "NORMAL": 1,
            "POSITION": 0,
            "TEXCOORD_0": 2
          },
          "indices": 3,
          "material": 0,
          "mode": 4
        }
      ]
    },
    {
      "name": "Sphere001_01 - Default_0",
      "primitives": [
        {
          "attributes": {
            "NORMAL": 5,
            "POSITION": 4,
            "TEXCOORD_0": 6
          },
          "indices": 7,
          "material": 1,
          "mode": 4
        }
      ]
    }
  ],
  "nodes": [
    {
      "children": [
        1
      ],
      "matrix": [
        1.0,
        0.0,
        0.0,
        0.0,
        0.0,
        2.220446049250313e-16,
        -1.0,
        0.0,
        0.0,
        1.0,
        2.220446049250313e-16,
        0.0,
        0.0,
        0.0,
        0.0,
        1.0
      ],
      "name": "Sketchfab_model"
    },
    {
      "children": [
        2
      ],
      "matrix": [
        0.02539999969303608,
        0.0,
        0.0,
        0.0,
        0.0,
        0.0,
        0.02539999969303608,
        0.0,
        0.0,
        -0.02539999969303608,
        0.0,
        0.0,
        0.0,
        0.0,
        0.0,
        1.0
      ],
      "name": "shiba inu.FBX"
    },
    {
      "children": [
        3,
        5
      ],
      "name": "RootNode"
    },
    {
      "children": [
        4
      ],
      "matrix": [
        23.667268753051758,
        0.0,
        0.0,
        0.0,
        0.0,
        -1.0345291846616039e-06,
        -23.667268753051733,
        0.0,
        0.0,
        23.667268753051733,
        -1.0345291846616039e-06,
        0.0,
        0.0,
        0.0,
        0.0,
        1.0
      ],
      "name": "high_poly"
    },
    {
      "mesh": 0,
      "name": "high_poly_Material #25_0"
    },
    {
      "children": [
        6
      ],
      "matrix": [
        0.8471732358001787,
        -0.14056881134521973,
        0.0,
        0.0,
        0.0021357329414350887,
        0.012871530814592275,
        0.8586570005062819,
        0.0,
        -0.1405525857741893,
        -0.8470754483224231,
        0.013047515499440153,
        0.0,
        5.567783355712891,
        11.031936645507813,
        3.6203525155542593e-07,
        1.0
      ],
      "name": "Sphere001"
    },
    {
      "mesh": 1,
      "name": "Sphere001_01 - Default_0"
    }
  ],
  "samplers": [
    {
      "magFilter": 9729,
      "minFilter": 9987,
      "wrapS": 10497,
      "wrapT": 10497
    }
  ],
  "scene": 0,
  "scenes": [
    {
      "name": "Sketchfab_Scene",
      "nodes": [
        0
      ]
    }
  ],
  "textures": [
    {
      "sampler": 0,
      "source": 0
    }
  ]
}
